<svg width="176" height="44" viewBox="0 0 176 44" fill="none" xmlns="http://www.w3.org/2000/svg">
<rect x="2" width="174" height="44" rx="5" fill="#362478"/>
<path d="M115.75 21.5147C115.75 32.6854 105.811 41.7794 93.5 41.7794C81.1894 41.7794 71.25 32.6854 71.25 21.5147C71.25 10.344 81.1894 1.25 93.5 1.25C105.811 1.25 115.75 10.344 115.75 21.5147Z" stroke="black" stroke-opacity="0.5" stroke-width="0.5"/>
<path fill-rule="evenodd" clip-rule="evenodd" d="M5.06773 22.1948L92.7728 0.485352L172.867 22.2395L93.9929 42.944L5.06773 22.1948ZM4 22.4591L3.87986 21.9738L92.6526 0L92.7728 0.485352L92.9038 0.00277174L173.838 21.9848L173.873 21.9755L173.878 21.9959L173.904 22.0028L173.892 22.047L174 22.4591L94 43.4591L4 22.4591Z" fill="black"/>
<path d="M18.2926 33V9.72727H27.9972C29.7396 9.72727 31.1979 9.97348 32.3722 10.4659C33.554 10.9583 34.4403 11.6477 35.0312 12.5341C35.6297 13.4205 35.929 14.447 35.929 15.6136C35.929 16.5 35.7434 17.2917 35.3722 17.9886C35.0009 18.678 34.4896 19.25 33.8381 19.7045C33.1866 20.1591 32.4328 20.4773 31.5767 20.6591V20.8864C32.5161 20.9318 33.3835 21.1856 34.179 21.6477C34.982 22.1098 35.6259 22.7538 36.1108 23.5795C36.5956 24.3977 36.8381 25.3674 36.8381 26.4886C36.8381 27.7386 36.5199 28.8561 35.8835 29.8409C35.2472 30.8182 34.3267 31.5909 33.1222 32.1591C31.9176 32.7197 30.4555 33 28.7358 33H18.2926ZM23.9176 28.4659H27.3949C28.6146 28.4659 29.5123 28.2348 30.0881 27.7727C30.6714 27.3106 30.9631 26.6667 30.9631 25.8409C30.9631 25.2424 30.8229 24.7273 30.5426 24.2955C30.2623 23.8561 29.8646 23.5189 29.3494 23.2841C28.8343 23.0417 28.2169 22.9205 27.4972 22.9205H23.9176V28.4659ZM23.9176 19.2955H27.0312C27.6449 19.2955 28.1903 19.1932 28.6676 18.9886C29.1449 18.7841 29.5161 18.4886 29.7812 18.1023C30.054 17.7159 30.1903 17.25 30.1903 16.7045C30.1903 15.9242 29.9138 15.3106 29.3608 14.8636C28.8078 14.4167 28.0616 14.1932 27.1222 14.1932H23.9176V19.2955ZM39.5426 33V15.5455H44.9403V18.7273H45.1222C45.4403 17.5758 45.9593 16.7197 46.679 16.1591C47.3987 15.5909 48.2358 15.3068 49.1903 15.3068C49.4479 15.3068 49.7131 15.3258 49.9858 15.3636C50.2585 15.3939 50.5123 15.4432 50.7472 15.5114V20.3409C50.482 20.25 50.1335 20.178 49.7017 20.125C49.2775 20.072 48.8987 20.0455 48.5653 20.0455C47.9063 20.0455 47.3116 20.1932 46.7812 20.4886C46.2585 20.7765 45.8456 21.1818 45.5426 21.7045C45.2472 22.2197 45.0994 22.8258 45.0994 23.5227V33H39.5426ZM57.2756 33.2955C56.1619 33.2955 55.1733 33.1098 54.3097 32.7386C53.4536 32.3598 52.7756 31.7917 52.2756 31.0341C51.7831 30.2689 51.5369 29.3106 51.5369 28.1591C51.5369 27.1894 51.7074 26.3712 52.0483 25.7045C52.3892 25.0379 52.8589 24.4962 53.4574 24.0795C54.0559 23.6629 54.7453 23.3485 55.5256 23.1364C56.3059 22.9167 57.1392 22.7689 58.0256 22.6932C59.018 22.6023 59.8172 22.5076 60.4233 22.4091C61.0294 22.303 61.4688 22.1553 61.7415 21.9659C62.0218 21.7689 62.1619 21.4924 62.1619 21.1364V21.0795C62.1619 20.4962 61.9612 20.0455 61.5597 19.7273C61.1581 19.4091 60.6165 19.25 59.9347 19.25C59.1998 19.25 58.6089 19.4091 58.1619 19.7273C57.715 20.0455 57.4309 20.4848 57.3097 21.0455L52.1847 20.8636C52.3362 19.803 52.7263 18.8561 53.3551 18.0227C53.9915 17.1818 54.8627 16.5227 55.9688 16.0455C57.0824 15.5606 58.4195 15.3182 59.9801 15.3182C61.0938 15.3182 62.1203 15.4508 63.0597 15.7159C63.9991 15.9735 64.8172 16.3523 65.5142 16.8523C66.2112 17.3447 66.7491 17.9508 67.1278 18.6705C67.5142 19.3902 67.7074 20.2121 67.7074 21.1364V33H62.4801V30.5682H62.3438C62.0331 31.1591 61.6354 31.6591 61.1506 32.0682C60.6733 32.4773 60.1089 32.7841 59.4574 32.9886C58.8134 33.1932 58.0862 33.2955 57.2756 33.2955ZM58.9915 29.6591C59.59 29.6591 60.1278 29.5379 60.6051 29.2955C61.09 29.053 61.4763 28.7197 61.7642 28.2955C62.0521 27.8636 62.196 27.3636 62.196 26.7955V25.1364C62.0369 25.2197 61.8438 25.2955 61.6165 25.3636C61.3968 25.4318 61.1544 25.4962 60.8892 25.5568C60.6241 25.6174 60.3513 25.6705 60.071 25.7159C59.7907 25.7614 59.5218 25.803 59.2642 25.8409C58.7415 25.9242 58.2945 26.053 57.9233 26.2273C57.5597 26.4015 57.2794 26.6288 57.0824 26.9091C56.893 27.1818 56.7983 27.5076 56.7983 27.8864C56.7983 28.4621 57.0028 28.9015 57.4119 29.2045C57.8286 29.5076 58.3551 29.6591 58.9915 29.6591Z" fill="#2FA851"/>
<path d="M71.1051 33V9.72727H80.7188C82.4612 9.72727 83.965 10.0682 85.2301 10.75C86.5028 11.4242 87.4839 12.3674 88.1733 13.5795C88.8627 14.7841 89.2074 16.1856 89.2074 17.7841C89.2074 19.3902 88.8551 20.7955 88.1506 22C87.4536 23.197 86.4574 24.125 85.1619 24.7841C83.8665 25.4432 82.3286 25.7727 80.5483 25.7727H74.6165V21.3409H79.5028C80.3513 21.3409 81.0597 21.1932 81.6278 20.8977C82.2036 20.6023 82.6392 20.1894 82.9347 19.6591C83.2301 19.1212 83.3778 18.4962 83.3778 17.7841C83.3778 17.0644 83.2301 16.4432 82.9347 15.9205C82.6392 15.3902 82.2036 14.9811 81.6278 14.6932C81.0521 14.4053 80.3438 14.2614 79.5028 14.2614H76.7301V33H71.1051ZM99.7955 33.3295C97.9697 33.3295 96.3939 32.9697 95.0682 32.25C93.75 31.5227 92.7348 30.4886 92.0227 29.1477C91.3182 27.7992 90.9659 26.197 90.9659 24.3409C90.9659 22.5379 91.322 20.9621 92.0341 19.6136C92.7462 18.2576 93.75 17.2045 95.0455 16.4545C96.3409 15.697 97.8674 15.3182 99.625 15.3182C100.867 15.3182 102.004 15.5114 103.034 15.8977C104.064 16.2841 104.955 16.8561 105.705 17.6136C106.455 18.3712 107.038 19.3068 107.455 20.4205C107.871 21.5265 108.08 22.7955 108.08 24.2273V25.6136H92.9091V22.3864H102.909C102.902 21.7955 102.761 21.2689 102.489 20.8068C102.216 20.3447 101.841 19.9848 101.364 19.7273C100.894 19.4621 100.352 19.3295 99.7386 19.3295C99.1174 19.3295 98.5606 19.4697 98.0682 19.75C97.5758 20.0227 97.1856 20.3977 96.8977 20.875C96.6098 21.3447 96.4583 21.8788 96.4432 22.4773V25.7614C96.4432 26.4735 96.5833 27.0985 96.8636 27.6364C97.1439 28.1667 97.5417 28.5795 98.0568 28.875C98.572 29.1705 99.1856 29.3182 99.8977 29.3182C100.39 29.3182 100.837 29.25 101.239 29.1136C101.64 28.9773 101.985 28.7765 102.273 28.5114C102.561 28.2462 102.777 27.9205 102.92 27.5341L108.023 27.6818C107.811 28.8258 107.345 29.822 106.625 30.6705C105.913 31.5114 104.977 32.1667 103.818 32.6364C102.659 33.0985 101.318 33.3295 99.7955 33.3295ZM117.293 33.25C116.005 33.25 114.834 32.9167 113.781 32.25C112.728 31.5833 111.887 30.5833 111.259 29.25C110.63 27.9167 110.315 26.2614 110.315 24.2841C110.315 22.2311 110.641 20.5417 111.293 19.2159C111.944 17.8902 112.796 16.9091 113.849 16.2727C114.91 15.6364 116.05 15.3182 117.27 15.3182C118.187 15.3182 118.971 15.4773 119.622 15.7955C120.274 16.1061 120.812 16.5076 121.236 17C121.66 17.4924 121.982 18.0038 122.202 18.5341H122.315V9.72727H127.872V33H122.372V30.1705H122.202C121.967 30.7083 121.634 31.2121 121.202 31.6818C120.77 32.1515 120.228 32.5303 119.577 32.8182C118.933 33.1061 118.171 33.25 117.293 33.25ZM119.224 28.9205C119.899 28.9205 120.474 28.7311 120.952 28.3523C121.429 27.9659 121.796 27.4242 122.054 26.7273C122.312 26.0303 122.44 25.2121 122.44 24.2727C122.44 23.3182 122.312 22.4962 122.054 21.8068C121.804 21.1174 121.437 20.5871 120.952 20.2159C120.474 19.8447 119.899 19.6591 119.224 19.6591C118.535 19.6591 117.952 19.8485 117.474 20.2273C116.997 20.6061 116.634 21.1402 116.384 21.8295C116.141 22.5189 116.02 23.3333 116.02 24.2727C116.02 25.2121 116.145 26.0303 116.395 26.7273C116.645 27.4242 117.005 27.9659 117.474 28.3523C117.952 28.7311 118.535 28.9205 119.224 28.9205ZM131.386 33V15.5455H136.943V33H131.386ZM134.17 13.5114C133.39 13.5114 132.72 13.2538 132.159 12.7386C131.598 12.2159 131.318 11.5871 131.318 10.8523C131.318 10.125 131.598 9.50379 132.159 8.98864C132.72 8.46591 133.39 8.20454 134.17 8.20454C134.958 8.20454 135.629 8.46591 136.182 8.98864C136.742 9.50379 137.023 10.125 137.023 10.8523C137.023 11.5871 136.742 12.2159 136.182 12.7386C135.629 13.2538 134.958 13.5114 134.17 13.5114ZM145.401 33.2955C144.287 33.2955 143.298 33.1098 142.435 32.7386C141.579 32.3598 140.901 31.7917 140.401 31.0341C139.908 30.2689 139.662 29.3106 139.662 28.1591C139.662 27.1894 139.832 26.3712 140.173 25.7045C140.514 25.0379 140.984 24.4962 141.582 24.0795C142.181 23.6629 142.87 23.3485 143.651 23.1364C144.431 22.9167 145.264 22.7689 146.151 22.6932C147.143 22.6023 147.942 22.5076 148.548 22.4091C149.154 22.303 149.594 22.1553 149.866 21.9659C150.147 21.7689 150.287 21.4924 150.287 21.1364V21.0795C150.287 20.4962 150.086 20.0455 149.685 19.7273C149.283 19.4091 148.741 19.25 148.06 19.25C147.325 19.25 146.734 19.4091 146.287 19.7273C145.84 20.0455 145.556 20.4848 145.435 21.0455L140.31 20.8636C140.461 19.803 140.851 18.8561 141.48 18.0227C142.116 17.1818 142.988 16.5227 144.094 16.0455C145.207 15.5606 146.545 15.3182 148.105 15.3182C149.219 15.3182 150.245 15.4508 151.185 15.7159C152.124 15.9735 152.942 16.3523 153.639 16.8523C154.336 17.3447 154.874 17.9508 155.253 18.6705C155.639 19.3902 155.832 20.2121 155.832 21.1364V33H150.605V30.5682H150.469C150.158 31.1591 149.76 31.6591 149.276 32.0682C148.798 32.4773 148.234 32.7841 147.582 32.9886C146.938 33.1932 146.211 33.2955 145.401 33.2955ZM147.116 29.6591C147.715 29.6591 148.253 29.5379 148.73 29.2955C149.215 29.053 149.601 28.7197 149.889 28.2955C150.177 27.8636 150.321 27.3636 150.321 26.7955V25.1364C150.162 25.2197 149.969 25.2955 149.741 25.3636C149.522 25.4318 149.279 25.4962 149.014 25.5568C148.749 25.6174 148.476 25.6705 148.196 25.7159C147.916 25.7614 147.647 25.803 147.389 25.8409C146.866 25.9242 146.42 26.053 146.048 26.2273C145.685 26.4015 145.404 26.6288 145.207 26.9091C145.018 27.1818 144.923 27.5076 144.923 27.8864C144.923 28.4621 145.128 28.9015 145.537 29.2045C145.954 29.5076 146.48 29.6591 147.116 29.6591Z" fill="#DFFF00"/>
</svg>
